<svg width="152" height="20" viewBox="0 0 152 20" fill="none" xmlns="http://www.w3.org/2000/svg">
<path d="M12.3855 4.93877V0H3.42236L0 4.93877L12.3855 19.8864V11.9866L6.68624 4.93877H12.3855Z" fill="#00EEFF"/>
<path d="M13.7419 19.8855V0H22.7041L26.1265 4.93877L13.7419 19.8855Z" fill="#00EEFF"/>
<path d="M12.3855 0V4.93877H0L3.42236 0H12.3855Z" fill="#039FD9"/>
<path d="M13.7401 0V4.93877H26.1255L22.7032 0H13.7401Z" fill="#039FD9"/>
<path d="M15.3614 20L20.8872 13.1671L26.413 20H15.3614Z" fill="#039FD9"/>
<path d="M40.4646 15.6683V12.3886H37.3017V15.5852C37.3017 16.1209 37.1974 16.5187 36.9942 16.7768C36.7345 17.111 36.3281 17.279 35.7732 17.279C35.2184 17.279 34.7837 17.1198 34.4692 16.8069C34.2077 16.5293 34.0787 16.0749 34.0787 15.4437V4.52793C34.0787 3.86138 34.236 3.38932 34.5505 3.10997C34.8473 2.85184 35.2343 2.721 35.7185 2.721C36.1991 2.721 36.579 2.86952 36.8564 3.16478C37.1144 3.44412 37.2434 3.87022 37.2434 4.44483V6.83344H40.4098V4.69413C40.4098 3.15594 39.938 1.97312 38.9945 1.13861C38.1428 0.378359 37.0402 0 35.6902 0C34.266 0 33.1086 0.406653 32.2198 1.22171C31.3505 2.0191 30.9158 3.08167 30.9158 4.4183V15.0848C30.9158 15.8628 30.9988 16.5417 31.1649 17.1269C31.3292 17.7103 31.6933 18.2514 32.2481 18.75C33.1546 19.5862 34.3208 19.9999 35.745 19.9999C37.2275 19.9999 38.4096 19.5862 39.2984 18.75C40.0759 18.0109 40.4646 16.9819 40.4646 15.6683Z" fill="#E5FFF8"/>
<path fill-rule="evenodd" clip-rule="evenodd" d="M49.2342 19.7241H52.8177V19.5862C52.4448 19.4183 52.2045 19.1672 52.095 18.833C51.9819 18.5024 51.9271 17.8801 51.9271 16.9731V12.8058C51.9271 11.7114 51.602 10.8805 50.9552 10.3076C50.6584 10.0477 50.2608 9.83554 49.7608 9.66758V9.58449C50.3527 9.50846 50.8634 9.25917 51.2892 8.83308C51.844 8.26023 52.1215 7.47347 52.1215 6.47099V4.25035C52.1215 3.064 51.844 2.13755 51.2892 1.47277C50.6213 0.673622 49.5134 0.277582 47.9567 0.277582H42.7387V19.7241H45.9016V11.2235H47.1527C47.6704 11.2235 48.0485 11.3242 48.2906 11.5276C48.6034 11.8069 48.7624 12.3143 48.7624 13.0569V17.4169C48.7624 18.3981 48.9197 19.1672 49.2342 19.7241ZM47.317 8.30621H45.9016V3.00035H47.6792C48.1599 3.00035 48.5027 3.14887 48.7076 3.44413C48.8737 3.70403 48.9568 4.13896 48.9568 4.74893V6.75033C48.9568 7.3603 48.7995 7.78641 48.485 8.02863C48.2447 8.21427 47.8559 8.30621 47.317 8.30621Z" fill="#E5FFF8"/>
<path d="M57.1715 19.7241H60.338V10.8893L63.9462 0.277582H60.6172L59.0339 6.24999L58.7547 7.02615L58.4773 6.24999L56.8959 0.277582H53.5633L57.1715 10.8893V19.7241Z" fill="#E5FFF8"/>
<path d="M68.0527 13.2496H64.888V15.6683C64.888 17.187 65.4428 18.3362 66.5543 19.1124C67.4236 19.7065 68.5085 19.9999 69.8038 19.9999C71.3198 19.9999 72.4595 19.6322 73.2158 18.8914C73.958 18.1683 74.3273 17.1782 74.3273 15.9158V13.6969C74.3273 13.0481 74.2071 12.4487 73.9668 11.9024C73.7265 11.3578 73.4809 10.9406 73.23 10.6524C72.9808 10.3677 72.6239 10.0106 72.1627 9.58449L68.9132 6.61243C68.3955 6.14921 68.1375 5.62233 68.1375 5.02828V4.13896C68.1375 3.67574 68.2453 3.33274 68.4697 3.10997C68.7294 2.85184 69.1182 2.721 69.6359 2.721C70.0794 2.721 70.4416 2.86952 70.7173 3.16478C70.9594 3.44412 71.0778 3.8879 71.0778 4.49787V6.11208H74.2442V4.13896C74.2442 2.88013 73.8749 1.89003 73.1328 1.16691C72.3376 0.388973 71.182 0 69.6624 0C68.035 0 66.8211 0.369525 66.0277 1.1121C65.3227 1.77688 64.971 2.58309 64.971 3.52722V5.08308C64.971 6.02721 65.1831 6.85996 65.6089 7.58308C65.8687 8.02862 66.3033 8.53605 66.913 9.11243L70.1625 12.1128C70.8304 12.7227 71.1608 13.4547 71.1608 14.3069V15.5852C71.1608 16.2128 71.0601 16.6478 70.8569 16.89C70.6183 17.1499 70.2084 17.279 69.6359 17.279C68.9309 17.279 68.4697 17.0279 68.2453 16.5293C68.1163 16.2712 68.0527 15.7602 68.0527 15.0017V13.2496Z" fill="#E5FFF8"/>
<path d="M78.9055 19.7241H82.072V3.00035H85.431V0.277582H75.4899V3.00035H78.9055V19.7241Z" fill="#E5FFF8"/>
<path fill-rule="evenodd" clip-rule="evenodd" d="M92.9514 19.7241H96.2256L92.6457 0.277582H88.7583L85.1766 19.7241H88.4526L89.0074 16.1403H92.3948L92.9514 19.7241ZM92.0325 13.4176H89.3679L90.6737 5.6683H90.7285L92.0325 13.4176Z" fill="#E5FFF8"/>
<path d="M97.9184 19.7241H106.301V17.0014H101.081V0.277582H97.9184V19.7241Z" fill="#E5FFF8"/>
<path fill-rule="evenodd" clip-rule="evenodd" d="M116.165 19.7241H119.749V19.5862C119.378 19.4183 119.136 19.1672 119.026 18.833C118.915 18.5024 118.86 17.8801 118.86 16.9731V12.8058C118.86 11.7132 118.535 10.8805 117.886 10.3076C117.59 10.0477 117.194 9.83555 116.692 9.66758V9.58448C117.286 9.51022 117.794 9.25916 118.22 8.83307C118.775 8.26023 119.053 7.47346 119.053 6.47098V4.25034C119.053 3.06399 118.775 2.13754 118.22 1.47276C117.552 0.675381 116.444 0.277572 114.888 0.277572H109.67V19.7241H112.833V11.2234H114.084C114.603 11.2234 114.98 11.3242 115.222 11.5275C115.535 11.8069 115.694 12.3143 115.694 13.0569V17.4168C115.694 18.3999 115.853 19.1672 116.165 19.7241ZM114.248 8.3062H112.833V3.00211H114.612C115.093 3.00211 115.434 3.14886 115.639 3.44412C115.805 3.70402 115.89 4.13895 115.89 4.74892V6.75033C115.89 7.36207 115.731 7.78817 115.418 8.02862C115.176 8.21426 114.787 8.3062 114.248 8.3062Z" fill="#E5FFF8"/>
<path fill-rule="evenodd" clip-rule="evenodd" d="M131.045 15.4437V4.5562C131.045 3.83308 130.967 3.20897 130.808 2.6821C130.651 2.15169 130.294 1.63895 129.738 1.1386C128.868 0.378348 127.695 0 126.212 0C124.733 0 123.557 0.378348 122.687 1.1386C122.299 1.48867 122.002 1.87764 121.798 2.30374C121.597 2.72983 121.475 3.09582 121.438 3.40169C121.401 3.70932 121.383 4.09298 121.383 4.5562V15.4437C121.383 16.1669 121.461 16.7927 121.62 17.3214C121.776 17.8482 122.132 18.361 122.687 18.8631C123.557 19.6233 124.733 19.9999 126.212 19.9999C127.695 19.9999 128.868 19.6233 129.738 18.8631C130.13 18.5113 130.423 18.1223 130.628 17.6962C130.831 17.2701 130.953 16.9041 130.99 16.6C131.024 16.2941 131.045 15.9087 131.045 15.4437ZM124.546 15.3359V4.66582C124.546 4.03817 124.65 3.58379 124.854 3.30621C125.131 2.91724 125.585 2.72276 126.212 2.72276C126.843 2.72276 127.297 2.91724 127.573 3.30621C127.778 3.58379 127.879 4.03817 127.879 4.66582V15.3359C127.879 15.9635 127.778 16.4179 127.573 16.6937C127.297 17.0862 126.843 17.2789 126.212 17.2789C125.585 17.2789 125.131 17.0862 124.854 16.6937C124.65 16.4179 124.546 15.9635 124.546 15.3359Z" fill="#E5FFF8"/>
<path d="M133.514 19.7241H141.898V17.0031H136.677V0.277572H133.514V19.7241Z" fill="#E5FFF8"/>
<path d="M143.616 19.7241H152V17.0031H146.778V0.277572H143.616V19.7241Z" fill="#E5FFF8"/>
</svg>
