<svg xmlns="http://www.w3.org/2000/svg" width="104" height="20" viewBox="0 0 103 20">
  <path d="M23.332 12.797a.587.587 0 0 1-.59-.59V7.57a.59.59 0 0 1 .59-.593h1.48c.56 0 1.032.09 1.415.261.39.172.683.469.882.89.203.423.305 1.009.305 1.759 0 .754-.102 1.34-.3 1.761-.196.422-.481.72-.86.891-.375.172-.828.258-1.36.258ZM7.234 8.3c0 .329.262.59.586.59h1.54c.253 0 .48-.038.675-.12a1.01 1.01 0 0 0 .457-.348.95.95 0 0 0 .168-.563c0-.336-.12-.59-.36-.765-.234-.18-.534-.27-.902-.27H7.82a.588.588 0 0 0-.586.59ZM7.82 12.98a.586.586 0 0 1-.586-.59v-1.093a.59.59 0 0 1 .586-.594h1.746c.301 0 .551.047.762.14.215.09.379.223.492.4.117.175.176.39.176.644 0 .36-.125.636-.367.82-.246.184-.613.273-1.102.273Zm0 0" style="stroke:none;fill-rule:nonzero;fill:#faff00;fill-opacity:1"/>
  <path d="M.102 3.906c0-2.12 1.71-3.84 3.82-3.84h41.637c2.109 0 3.816 1.72 3.816 3.84v11.965c0 2.121-1.707 3.84-3.816 3.84H3.922c-2.11 0-3.82-1.719-3.82-3.84Zm20.312 11.38H25c1.09 0 2.035-.216 2.836-.641a4.527 4.527 0 0 0 1.86-1.856c.433-.809.652-1.777.652-2.902 0-1.125-.22-2.086-.66-2.89A4.432 4.432 0 0 0 27.82 5.14c-.804-.434-1.758-.649-2.863-.649h-4.543a.586.586 0 0 0-.586.59v9.613c0 .328.262.59.586.59ZM4.32 14.73a.59.59 0 0 0 .586.594h5.395c.781 0 1.453-.133 2.015-.398.563-.262.996-.625 1.301-1.086.309-.457.461-.985.461-1.574 0-.512-.113-.954-.336-1.329a2.408 2.408 0 0 0-.902-.89 2.631 2.631 0 0 0-1.203-.352c-.032 0-.055-.027-.055-.058 0-.028.02-.055.047-.059a2.795 2.795 0 0 0 1.043-.445c.312-.219.555-.492.723-.82.175-.329.265-.688.265-1.086 0-.547-.144-1.024-.43-1.43-.285-.402-.707-.715-1.265-.938-.555-.222-1.242-.332-2.063-.332H4.906a.588.588 0 0 0-.586.59ZM38.7 4.988a.585.585 0 0 0-.544-.367h-2.648a.593.593 0 0 0-.59.594v9.613c0 .324.266.59.59.59h1.676c.324 0 .59-.266.59-.59V9.184c0-.028.019-.051.05-.051.02 0 .035.015.043.035l2.235 5.789c.09.227.304.375.546.375h.918c.243 0 .461-.148.547-.375l2.235-5.75a.053.053 0 0 1 .047-.031c.027 0 .046.023.046.05v5.602c0 .324.266.59.59.59h1.676a.59.59 0 0 0 .59-.59V5.215a.59.59 0 0 0-.59-.594h-2.645a.595.595 0 0 0-.546.367l-2.32 5.692a.097.097 0 0 1-.087.058.099.099 0 0 1-.09-.058ZM17.128 1.824c.164 0 .293.133.293.297v15.535a.293.293 0 0 1-.293.297h-.582a.293.293 0 0 1-.293-.297V2.121c0-.164.129-.297.293-.297Zm15.805 0c.164 0 .296.133.296.297v15.535a.297.297 0 0 1-.296.297h-.582a.293.293 0 0 1-.293-.297V2.121c0-.164.129-.297.293-.297Zm0 0" style="stroke:none;fill-rule:evenodd;fill:#faff00;fill-opacity:1"/>
  <path d="M52.605 19.71a.38.38 0 0 1-.378-.378V.445c0-.21.168-.379.378-.379H60.7c1.489 0 2.739.204 3.75.606 1.02.402 1.785.969 2.301 1.707.523.734.781 1.601.781 2.598 0 .722-.156 1.382-.476 1.976a4.196 4.196 0 0 1-1.317 1.496 5.138 5.138 0 0 1-1.898.809.105.105 0 0 0-.086.105.11.11 0 0 0 .101.11c.801.043 1.532.257 2.188.636.687.391 1.234.93 1.644 1.621.407.684.61 1.489.61 2.418 0 1.075-.281 2.032-.84 2.868-.555.836-1.344 1.496-2.367 1.976-1.024.48-2.246.719-3.664.719Zm4.926-4.64c0 .211.168.383.38.383h2.1c.891 0 1.56-.168 2.005-.5.445-.34.668-.836.668-1.496 0-.46-.102-.852-.313-1.172a1.985 1.985 0 0 0-.898-.726c-.383-.168-.844-.25-1.383-.25h-2.18a.377.377 0 0 0-.379.379Zm0-7.441c0 .21.168.379.38.379h1.796c.465 0 .875-.074 1.23-.219.36-.148.633-.36.833-.633.203-.281.304-.625.304-1.027 0-.61-.215-1.07-.648-1.39-.434-.329-.98-.489-1.64-.489H57.91a.377.377 0 0 0-.379.379ZM70.285 19.71a.382.382 0 0 1-.379-.378V.445a.38.38 0 0 1 .38-.379h14.198c.207 0 .375.168.375.38v3.538c0 .211-.168.38-.375.38H75.59a.378.378 0 0 0-.375.378V7.36c0 .211.168.38.375.38h7.707a.38.38 0 0 1 .375.382v3.535a.38.38 0 0 1-.375.383H75.59a.376.376 0 0 0-.375.379v2.617c0 .207.168.38.375.38h8.894c.207 0 .375.167.375.378v3.539a.378.378 0 0 1-.375.379ZM87.066 4.363a.38.38 0 0 1-.379-.379V.445a.38.38 0 0 1 .38-.379h15.363c.21 0 .379.168.379.38v3.538c0 .211-.168.38-.38.38h-4.726a.38.38 0 0 0-.379.378v14.59a.382.382 0 0 1-.379.379h-4.472a.38.38 0 0 1-.38-.379V4.742a.38.38 0 0 0-.378-.379Zm0 0" style="stroke:none;fill-rule:nonzero;fill:#fff;fill-opacity:1"/>
</svg>
