<svg xmlns="http://www.w3.org/2000/svg" width="148" height="32"><defs><radialGradient id="a" gradientUnits="userSpaceOnUse" cx="0" cy="0" fx="0" fy="0" r="1" gradientTransform="matrix(-13.69142 15.75274 -15.71413 -13.72506 23.308 7.83)"><stop offset="0" style="stop-color:#ff7a00;stop-opacity:1"/><stop offset="1" style="stop-color:#ff5c00;stop-opacity:1"/></radialGradient></defs><path style="stroke:none;fill-rule:evenodd;fill:url(#a)" d="M16.27 0c8.8 0 15.933 7.152 15.933 15.973 0 8.82-7.133 15.972-15.933 15.972-8.797 0-15.934-7.152-15.934-15.972S7.473 0 16.27 0Zm0 0"/><path style="stroke:none;fill-rule:nonzero;fill:#fefefe;fill-opacity:1" d="M7.832 16.45c.227-.41.48-.829.734-1.25.852-1.4 1.73-2.845 1.739-4.262.015-1.844-1.672-3.614-1.918-2.34-.29 1.453-1.414 1.238-1.825.504-.718-1.274.708-2.907 2.364-2.438 1.656.469 2.687 2.305 2.656 4.059-.027 1.363-.855 2.914-1.719 4.53-.933 1.755-1.91 3.583-1.949 5.333.047 3.453 2.465 4.598 2.469 3.09.012-1.48 1.156-1.485 1.699-.844.941 1.121-.18 3.805-2.379 3.406-1.414-.261-2.437-.98-3.004-2.175-1.12-2.36-.031-5.497 1.133-7.614ZM24.715 16.45c-.227-.41-.48-.825-.735-1.243-.851-1.402-1.734-2.848-1.742-4.27-.011-1.843 1.672-3.613 1.922-2.34.29 1.454 1.414 1.239 1.824.505.715-1.274-.707-2.907-2.363-2.438-1.66.469-2.691 2.305-2.656 4.059.027 1.363.851 2.914 1.715 4.527.933 1.754 1.91 3.586 1.949 5.336-.047 3.453-2.461 4.598-2.465 3.09-.012-1.48-1.16-1.485-1.7-.844-.944 1.121.177 3.805 2.376 3.406 1.418-.261 2.441-.98 3.004-2.175 1.12-2.36.035-5.497-1.13-7.614ZM13.605 9.352v11.222c-.015.63.672.742.707-.031V9.461c.508.066 1.055.11 1.61.125v9.613c-.016.567.672.668.703-.027V9.59c.555-.004 1.102-.04 1.61-.098v11.082c-.016.63.675.742.706-.031V9.387c1.012-.184 1.786-.496 2.012-.95h-2.012v-1.44c0-.169-.156-.302-.351-.302-.195 0-.356.133-.356.301v1.441h-1.609V6.966c0-.149-.156-.27-.352-.27-.195 0-.351.121-.351.27v1.473h-1.61V6.995c0-.168-.16-.3-.355-.3-.195 0-.352.132-.352.3v1.441h-2.011c.21.415.988.72 2.011.915Zm0 0"/><path style="stroke:none;fill-rule:nonzero;fill:#fefefe;fill-opacity:1" d="m15.941 20.973-2.632 2.64a.472.472 0 0 0 0 .66l2.632 2.645c.184.18.477.18.66 0l2.637-2.645a.472.472 0 0 0 0-.66l-2.636-2.64a.472.472 0 0 0-.66 0Zm0 0"/><path style="stroke:none;fill-rule:evenodd;fill:#000;fill-opacity:1" d="M16.273 21.813c.329 0 .594.269.594.597a.595.595 0 1 1-1.191 0c0-.328.265-.598.597-.598Zm-2.128 2.132a.594.594 0 1 1 1.191 0 .597.597 0 0 1-.594.598.6.6 0 0 1-.597-.598Zm3.062 0a.595.595 0 1 1 1.191 0 .597.597 0 1 1-1.191 0Zm-.934-.597a.597.597 0 1 1-.006 1.197.597.597 0 0 1 .006-1.197Zm0 1.535a.597.597 0 1 1-.006 1.197.597.597 0 0 1 .006-1.197Zm0 0"/><path style="stroke:none;fill-rule:nonzero;fill:#fefefe;fill-opacity:1" d="M50.934 21.813c.164 0 .289.046.375.136.09.09.129.219.129.383v3.043c0 .164-.04.29-.13.383a.51.51 0 0 1-.374.133H37.902a.55.55 0 0 1-.375-.133.515.515 0 0 1-.144-.383V5.585c0-.163.043-.288.137-.374.09-.09.222-.129.382-.129h3.621c.16 0 .29.04.383.129.09.086.133.21.133.375v16.227Zm47.855 4.421c-1.086 0-2.152-.144-3.2-.43a11.418 11.418 0 0 1-2.87-1.21c-.86-.524-1.547-1.125-2.055-1.809a.652.652 0 0 1-.152-.41c0-.21.101-.414.3-.605l2.172-2.192a.661.661 0 0 1 .426-.164c.203 0 .418.09.625.266a8.12 8.12 0 0 0 2.172 1.515c.82.395 1.617.59 2.39.59.966 0 1.708-.172 2.208-.52.504-.347.761-.831.761-1.453 0-.394-.136-.73-.406-1.003-.273-.282-.68-.543-1.222-.793a26.393 26.393 0 0 0-2.32-.86c-1.454-.457-2.626-.953-3.528-1.484-.899-.531-1.578-1.188-2.04-1.957-.464-.774-.69-1.719-.69-2.828 0-1.227.3-2.301.898-3.227.605-.926 1.46-1.637 2.578-2.148 1.113-.504 2.414-.758 3.898-.758 1.172 0 2.313.215 3.414.656 1.106.438 1.97 1.012 2.598 1.723.168.191.258.394.258.601 0 .192-.078.38-.23.563l-1.75 2.027c-.2.239-.422.356-.657.356-.18 0-.418-.09-.707-.274a5.526 5.526 0 0 0-1.539-.89A4.5 4.5 0 0 0 98.5 9.19c-.8 0-1.43.157-1.887.473-.46.324-.687.742-.687 1.277 0 .403.168.754.5 1.063.336.305.789.578 1.351.824.567.25 1.301.516 2.215.809 1.367.422 2.492.855 3.375 1.3a6.023 6.023 0 0 1 2.168 1.829c.567.77.848 1.761.848 2.968 0 1.305-.324 2.45-.977 3.434-.648.988-1.547 1.742-2.695 2.27-1.152.535-2.457.796-3.922.796ZM55.785 10.297a2.33 2.33 0 0 1-1.191-.313 2.315 2.315 0 0 1-.86-.855 2.283 2.283 0 0 1-.316-1.188c0-.43.102-.82.316-1.183.207-.36.496-.649.86-.863a2.303 2.303 0 0 1 1.191-.325c.43 0 .82.11 1.18.325.36.214.64.503.851.867.211.367.317.758.317 1.18a2.353 2.353 0 0 1-1.168 2.043c-.36.21-.75.312-1.18.312Zm1.621 1.66c.149 0 .262.04.344.121a.481.481 0 0 1 .121.34v13.02a.488.488 0 0 1-.121.347.478.478 0 0 1-.344.121h-3.25a.465.465 0 0 1-.336-.12.504.504 0 0 1-.117-.349V12.418c0-.145.043-.254.117-.34a.449.449 0 0 1 .336-.121Zm14.926 1.008c.113.094.164.21.164.355a.742.742 0 0 1-.121.375l-1.379 2.215c-.129.2-.266.3-.41.3a.36.36 0 0 1-.27-.12 4.086 4.086 0 0 0-.964-.63 2.257 2.257 0 0 0-.954-.233c-.562 0-1.074.152-1.535.457-.46.304-.82.718-1.086 1.226a3.56 3.56 0 0 0-.394 1.668v6.844c0 .324-.164.484-.496.484H61.68c-.153 0-.274-.043-.352-.12-.086-.087-.129-.204-.129-.364V12.445a.48.48 0 0 1 .14-.363.495.495 0 0 1 .356-.125h1.867c.114 0 .211.023.305.078a.635.635 0 0 1 .219.235l.723 1.859a5.492 5.492 0 0 1 1.836-1.82c.761-.465 1.52-.7 2.277-.7.574 0 1.164.125 1.777.371a5.568 5.568 0 0 1 1.633.985Zm14.738-1.008c.16 0 .274.04.364.125.086.09.132.211.132.363V25.41a.511.511 0 0 1-.136.363.51.51 0 0 1-.36.133H85.2c-.208 0-.376-.11-.505-.316l-.613-1.57a5.46 5.46 0 0 1-1.937 1.64 5.55 5.55 0 0 1-2.516.574c-1.238 0-2.36-.312-3.356-.945-.996-.629-1.78-1.5-2.355-2.61-.57-1.105-.86-2.343-.86-3.71 0-1.41.29-2.672.856-3.79.566-1.12 1.352-1.992 2.356-2.628 1-.637 2.117-.953 3.347-.953a5.53 5.53 0 0 1 2.528.582c.765.386 1.406.945 1.937 1.664l.613-1.574c.118-.211.285-.313.504-.313Zm-6.664 10.168A3.18 3.18 0 0 0 82 21.703a3.25 3.25 0 0 0 1.18-1.156c.289-.492.433-1.024.433-1.61 0-.593-.144-1.136-.433-1.628A3.211 3.211 0 0 0 82 16.145a3.093 3.093 0 0 0-1.594-.426c-.55 0-1.074.14-1.554.426a3.178 3.178 0 0 0-1.157 1.164 3.192 3.192 0 0 0-.43 1.628 3.186 3.186 0 0 0 1.586 2.766c.481.281 1.004.422 1.555.422Zm36.852-10.516c1.23 0 2.347.317 3.347.954 1 .636 1.786 1.511 2.352 2.624.57 1.126.856 2.383.856 3.782 0 1.367-.286 2.605-.856 3.71-.566 1.11-1.352 1.981-2.352 2.61-1 .633-2.117.945-3.347.945a5.76 5.76 0 0 1-2.117-.39 5.166 5.166 0 0 1-1.75-1.145l.015 6.137a.53.53 0 0 1-.12.355.427.427 0 0 1-.333.137h-3.207a.501.501 0 0 1-.367-.137.474.474 0 0 1-.14-.355V12.418a.48.48 0 0 1 .14-.355c.09-.09.21-.137.355-.137h1.871a.594.594 0 0 1 .52.316l.637 1.656c.535-.742 1.18-1.308 1.949-1.699.77-.394 1.617-.59 2.547-.59Zm-.793 10.532c.555 0 1.078-.141 1.555-.426a3.177 3.177 0 0 0 1.164-1.156 3.06 3.06 0 0 0 .437-1.606 3.207 3.207 0 0 0-1.586-2.797 3.067 3.067 0 0 0-1.57-.426c-.574 0-1.106.145-1.598.426a3.22 3.22 0 0 0-1.172 1.164 3.138 3.138 0 0 0-.437 1.633c0 .582.144 1.117.437 1.606.29.488.68.875 1.18 1.156a3.13 3.13 0 0 0 1.59.426Zm11.969-11.844c-.43 0-.829-.102-1.188-.313a2.298 2.298 0 0 1-.863-.855 2.32 2.32 0 0 1-.317-1.188c0-.43.106-.82.317-1.183.207-.36.496-.649.863-.863a2.28 2.28 0 0 1 1.188-.325c.43 0 .82.11 1.18.325.359.214.64.503.85.867.212.367.317.758.317 1.18a2.353 2.353 0 0 1-1.168 2.043c-.36.21-.75.312-1.18.312Zm1.62 1.66c.15 0 .262.04.344.121a.483.483 0 0 1 .125.34v13.02a.49.49 0 0 1-.125.347.478.478 0 0 1-.343.121h-3.25a.449.449 0 0 1-.332-.12.488.488 0 0 1-.121-.349V12.418c0-.145.043-.254.12-.34.079-.082.188-.121.333-.121Zm12.118-.36c1.09 0 2.055.25 2.894.747.836.496 1.489 1.21 1.954 2.136.46.922.695 2.012.695 3.266v7.664c0 .324-.156.48-.477.48h-3.21c-.153 0-.274-.038-.356-.117-.082-.085-.121-.203-.121-.363v-7.418c0-.765-.242-1.39-.727-1.879-.48-.48-1.133-.722-1.953-.722a2.87 2.87 0 0 0-1.418.363 2.778 2.778 0 0 0-1.039.976c-.258.399-.383.84-.383 1.301v7.39c0 .325-.164.485-.496.485h-3.207c-.152 0-.273-.043-.351-.12-.086-.087-.125-.204-.125-.364V12.445a.48.48 0 0 1 .14-.363.479.479 0 0 1 .352-.125h1.867a.572.572 0 0 1 .527.313l.774 2c.445-.786 1.097-1.43 1.96-1.926.864-.496 1.758-.746 2.7-.746Zm0 0"/></svg>